<?xml version="1.0" standalone="no"?>
<!DOCTYPE svg PUBLIC "-//W3C//DTD SVG 20010904//EN"
 "http://www.w3.org/TR/2001/REC-SVG-20010904/DTD/svg10.dtd">
<svg version="1.0" xmlns="http://www.w3.org/2000/svg"
 width="511.000000pt" height="511.000000pt" viewBox="0 0 511.000000 511.000000"
 preserveAspectRatio="xMidYMid meet">
<metadata>
Created by potrace 1.11, written by Peter Selinger 2001-2013
</metadata>
<g transform="translate(0.000000,511.000000) scale(0.100000,-0.100000)"
fill="#000000" stroke="none">
<path d="M1914 5085 c-9 -36 1 -41 32 -16 19 15 22 21 10 21 -9 0 -16 5 -16
10 0 21 -20 9 -26 -15z"/>
<path d="M2103 5095 c-10 -10 -9 -16 2 -25 12 -10 15 -9 15 6 1 17 2 17 13 3
7 -8 20 -18 30 -22 27 -10 20 -27 -12 -27 -16 0 -31 -4 -33 -10 -1 -5 -25 -11
-53 -14 -64 -5 -62 -5 -46 -15 8 -5 9 -11 3 -15 -6 -3 -17 6 -24 21 -18 37
-36 40 -40 6 -4 -35 -33 -43 -44 -11 -4 13 -7 26 -6 31 1 4 -3 7 -8 7 -5 0
-10 -7 -10 -15 0 -8 -11 -17 -25 -21 -33 -8 -22 -24 16 -24 35 0 36 -23 1 -28
-15 -2 -22 -11 -22 -25 -1 -12 -16 -40 -36 -62 -31 -36 -36 -38 -45 -22 -5 9
-17 17 -24 17 -8 0 -15 5 -15 10 0 6 5 10 10 10 6 0 10 7 10 15 0 24 -19 17
-26 -10 -3 -14 -12 -25 -19 -25 -7 0 -18 -6 -24 -14 -9 -11 -42 -13 -151 -12
-77 1 -145 -1 -150 -4 -29 -18 -60 -76 -55 -101 7 -31 -8 -46 -50 -51 -21 -2
-31 -9 -33 -23 -2 -11 -10 -34 -18 -52 -8 -17 -14 -36 -14 -42 0 -6 -6 -11
-13 -11 -8 0 -21 -8 -31 -19 -9 -10 -37 -26 -61 -37 -50 -20 -63 -41 -39 -59
10 -6 14 -16 11 -22 -3 -5 0 -21 8 -36 8 -15 10 -27 5 -27 -5 0 -11 8 -14 18
-3 9 -17 31 -31 47 -21 25 -25 27 -23 10 2 -21 -41 -75 -61 -75 -6 0 -11 -7
-11 -15 0 -22 4 -30 12 -28 12 4 9 -12 -3 -24 -17 -17 -4 -41 22 -45 21 -3 19
-6 -22 -45 -24 -24 -50 -43 -56 -43 -22 0 -65 -75 -58 -102 11 -43 -13 -52
-113 -42 -113 11 -341 11 -564 0 l-178 -9 0 -53 0 -53 343 5 c188 3 371 8 407
12 61 7 65 9 65 32 0 15 6 26 17 28 14 3 17 -4 17 -35 -1 -21 -8 -49 -16 -62
-10 -15 -16 -51 -17 -94 -1 -67 0 -70 24 -74 42 -6 47 -10 48 -43 0 -19 -5
-33 -14 -37 -10 -4 -14 -13 -10 -28 5 -19 -15 -61 -36 -76 -12 -8 -12 -57 0
-103 6 -22 8 -52 5 -67 -3 -14 0 -30 6 -33 6 -4 11 -33 11 -65 0 -54 17 -130
43 -191 9 -23 12 -20 32 47 13 39 35 84 49 100 15 15 31 46 38 68 19 72 81
229 104 265 27 45 83 88 149 117 43 19 50 25 47 47 -1 14 1 26 6 26 6 0 12 8
14 18 3 9 22 23 42 30 34 13 39 12 52 -5 14 -16 15 -13 11 33 -3 41 1 60 19
90 13 21 20 42 17 47 -3 6 -1 7 4 4 13 -8 73 48 73 68 0 8 12 17 28 21 43 9
72 23 72 34 0 5 -6 10 -12 10 -23 0 16 20 40 20 12 0 22 6 22 13 0 10 67 35
170 63 14 3 32 13 41 21 9 8 36 14 60 14 374 2 562 13 616 35 18 8 53 14 78
14 25 0 57 7 70 16 17 11 34 14 53 9 43 -11 86 -16 252 -27 115 -7 160 -14
173 -26 10 -9 40 -16 75 -18 53 -2 91 -16 197 -71 57 -29 102 -180 69 -230 -7
-12 -11 -29 -8 -37 4 -11 0 -16 -10 -16 -9 0 -16 -4 -16 -9 0 -5 -11 -12 -25
-15 -46 -12 -26 -26 38 -26 71 0 96 -10 74 -29 -11 -8 -13 -21 -7 -46 9 -41
-3 -46 -41 -17 -29 23 -67 33 -74 22 -7 -11 52 -72 85 -90 47 -24 130 -92 130
-107 0 -7 7 -24 15 -36 28 -43 55 -153 61 -247 6 -95 -3 -196 -29 -322 -22
-109 -17 -115 172 -188 183 -72 345 -151 384 -188 15 -15 42 -52 58 -82 30
-55 30 -56 18 -123 -13 -71 -27 -93 -36 -58 -3 12 -9 21 -13 21 -5 0 -12 9
-15 20 -3 11 -13 20 -22 20 -12 0 -14 -7 -9 -33 5 -28 3 -33 -14 -34 -13 -1
-20 4 -20 16 0 9 -4 21 -8 27 -5 5 -14 28 -20 50 -12 42 -37 72 -49 60 -4 -3
-1 -12 5 -18 7 -7 12 -18 12 -26 0 -15 -25 -43 -37 -42 -4 0 -16 -3 -25 -6
-23 -7 -75 21 -83 46 -3 11 -13 20 -21 20 -17 0 -63 49 -64 66 0 6 -7 17 -15
24 -32 26 -16 33 64 27 63 -5 94 -14 157 -45 61 -30 79 -43 77 -58 -1 -10 0
-13 3 -6 9 19 42 14 49 -7 6 -20 55 -25 55 -6 -1 17 -35 52 -68 69 -18 9 -32
20 -32 25 0 4 -6 8 -12 9 -7 0 -38 9 -68 20 -66 24 -114 37 -200 53 -35 7 -96
22 -135 34 l-70 22 0 51 c-1 38 -7 58 -22 74 -11 13 -27 40 -34 61 -7 20 -16
37 -21 37 -4 0 -4 -7 -1 -17 4 -10 2 -14 -4 -10 -6 4 -17 -6 -24 -21 -39 -76
-156 -235 -221 -299 -125 -123 -168 -154 -314 -231 -98 -51 -216 -92 -266 -92
-57 0 -136 20 -142 36 -6 16 5 19 20 4 17 -17 131 -24 177 -11 112 33 270 110
364 177 126 91 292 280 318 364 4 14 11 30 15 35 4 6 20 48 35 95 34 105 46
319 25 422 -12 57 -66 184 -91 214 -15 18 -91 26 -144 14 -102 -23 -301 -139
-389 -226 -94 -94 -198 -229 -242 -314 -15 -30 -33 -62 -40 -70 -7 -8 -19 -35
-27 -60 -9 -25 -29 -75 -47 -110 -23 -50 -29 -57 -26 -33 6 37 -2 66 -15 57
-5 -3 -9 9 -9 27 l0 32 -35 -37 c-61 -65 -210 -102 -387 -96 -37 1 -38 0 -38
-33 0 -18 5 -38 12 -45 9 -9 7 -12 -10 -12 -12 0 -22 -4 -22 -9 0 -21 -37 3
-60 40 -13 21 -37 45 -52 52 -31 13 -36 25 -13 33 26 10 16 24 -15 22 -19 -1
-32 -9 -36 -20 -3 -10 -9 -18 -14 -18 -9 0 -7 -11 7 -47 14 -37 28 -240 21
-308 -4 -38 -5 -78 -2 -87 3 -12 0 -18 -10 -18 -9 0 -16 -4 -16 -9 0 -5 -17
-19 -37 -32 -57 -35 -162 -30 -274 12 -46 18 -100 42 -119 54 -19 12 -45 25
-58 29 -12 4 -37 20 -54 36 -17 16 -35 27 -40 24 -15 -9 -8 -20 20 -35 27 -14
61 -48 62 -61 1 -28 -103 16 -121 50 -7 15 -26 40 -41 56 -16 17 -28 33 -28
37 0 4 -10 9 -22 13 -13 3 -29 19 -36 36 -8 17 -19 36 -25 43 -16 17 -32 43
-61 98 -38 71 -49 76 -91 45 -43 -33 -44 -45 -6 -52 30 -6 46 -27 35 -46 -3
-5 2 -16 12 -24 14 -11 15 -17 7 -20 -19 -8 -16 -25 8 -51 19 -20 20 -25 8
-40 -12 -15 -12 -16 2 -11 9 4 29 0 44 -8 15 -8 34 -14 41 -14 8 0 14 -5 14
-11 0 -5 -5 -7 -10 -4 -14 9 -23 -20 -16 -50 3 -13 20 -40 36 -59 17 -18 30
-39 30 -45 0 -11 12 -15 43 -12 15 2 17 -7 17 -68 0 -53 3 -71 13 -71 8 0 19
10 25 22 l11 23 0 -22 c1 -24 20 -30 49 -14 28 15 135 17 140 3 2 -7 -3 -12
-12 -12 -13 0 -16 -11 -16 -50 0 -28 -4 -58 -9 -68 -5 -9 -14 -29 -22 -44 -7
-16 -20 -28 -31 -28 -13 0 -18 -8 -18 -27 0 -16 -17 -55 -39 -88 -21 -34 -40
-72 -44 -85 -14 -65 -61 -178 -83 -201 -26 -27 -30 -45 -13 -51 6 -2 12 -55
16 -129 6 -136 -2 -175 -36 -164 -22 7 -36 -10 -46 -53 -6 -27 -3 -38 14 -54
18 -16 25 -17 36 -8 8 7 15 21 15 31 0 21 17 34 22 18 3 -9 19 -8 63 2 53 13
60 18 65 44 4 17 11 39 17 50 6 11 16 31 22 45 14 29 50 75 55 69 2 -2 0 -65
-4 -140 -6 -132 -7 -138 -36 -172 -16 -20 -46 -41 -66 -48 -25 -8 -38 -19 -40
-33 -2 -12 -13 17 -24 64 l-21 85 -8 -42 c-5 -31 -12 -43 -25 -43 -13 0 -20
-15 -30 -62 -8 -35 -19 -72 -27 -84 -16 -26 -7 -60 12 -44 18 15 28 -15 14
-41 -9 -17 -7 -21 11 -26 12 -3 20 -12 18 -22 -3 -18 30 -61 47 -61 6 0 16
-12 23 -27 16 -36 44 -84 59 -100 6 -7 15 -22 18 -33 4 -11 15 -20 27 -20 11
0 38 -18 59 -40 30 -30 39 -48 39 -73 0 -28 6 -37 35 -53 19 -10 39 -31 44
-46 6 -15 17 -28 25 -28 17 0 66 -42 66 -57 0 -5 -9 -18 -20 -28 -11 -10 -20
-26 -20 -37 0 -10 -6 -19 -12 -19 -7 -1 -20 -3 -28 -4 -8 -1 -21 -3 -27 -4 -7
0 -13 -10 -13 -21 0 -17 7 -20 44 -20 30 0 46 5 50 15 7 19 26 19 26 0 0 -13
131 -15 1123 -15 l1123 0 23 96 c41 171 39 446 -4 564 -7 19 -16 47 -19 63 -7
31 -26 37 -26 7 0 -11 12 -64 26 -117 41 -149 35 -347 -14 -470 -9 -24 -21
-43 -26 -43 -4 0 -26 10 -47 22 -39 22 -79 92 -79 138 0 11 -9 40 -20 62 -11
23 -20 48 -20 55 0 7 -4 13 -10 13 -5 0 -10 22 -10 49 0 28 5 53 10 56 5 3 10
17 10 31 0 13 4 24 9 24 5 0 16 17 24 38 9 21 26 52 40 68 37 46 98 170 132
269 9 27 21 55 27 62 5 7 8 18 5 25 -3 9 -7 6 -12 -7 -19 -48 -52 -67 -78 -45
-7 6 -21 17 -32 24 -19 14 -19 15 -2 68 9 31 17 87 17 127 0 54 4 73 15 77 8
4 15 12 15 20 0 8 5 14 10 14 6 0 10 7 10 15 0 8 -4 15 -10 15 -5 0 -10 8 -10
18 0 11 -9 27 -20 37 -11 10 -20 27 -20 39 0 68 -22 272 -30 274 -12 4 -13 42
-1 42 4 0 9 41 10 90 0 54 -3 90 -9 90 -6 0 -10 20 -10 44 0 25 -4 48 -10 51
-5 3 -10 14 -10 24 0 10 -13 29 -28 42 -33 27 -51 79 -29 79 20 0 47 -33 47
-58 0 -13 6 -22 15 -22 8 0 15 4 15 8 0 5 12 14 26 21 22 10 31 9 56 -8 30
-18 31 -22 34 -97 1 -44 7 -92 13 -109 7 -16 14 -36 16 -42 2 -7 10 -13 16
-13 8 0 10 16 6 54 -4 39 -2 58 8 66 9 8 15 8 20 0 4 -6 15 -8 26 -5 11 4 19
2 19 -6 0 -6 12 -23 26 -36 19 -18 26 -34 26 -61 0 -88 -23 -390 -31 -422 -5
-19 -14 -67 -20 -107 -6 -40 -17 -90 -25 -112 -13 -40 -13 -41 9 -35 13 3 37
-2 56 -11 41 -22 130 -16 159 10 29 27 25 35 -19 35 -29 0 -41 5 -45 18 -3 9
-21 41 -41 70 -28 44 -57 122 -44 122 12 0 94 -47 96 -54 2 -15 27 -26 55 -26
23 0 94 33 108 50 3 4 13 9 22 13 10 4 24 29 33 64 44 157 61 200 102 261 45
67 60 99 84 182 7 25 17 51 22 57 17 23 19 151 3 206 -24 84 -102 137 -179
123 -45 -8 -64 6 -50 36 6 13 15 41 20 63 5 22 13 39 19 38 5 -1 10 21 11 50
2 67 5 79 23 94 11 8 12 15 4 23 -13 13 -64 -4 -64 -22 0 -9 -3 -9 -12 0 -17
17 26 60 66 64 20 2 32 9 34 21 3 15 -2 18 -25 16 -15 -2 -34 1 -42 6 -10 5
-16 4 -19 -3 -5 -15 -31 -42 -41 -42 -4 0 -17 18 -30 40 -12 22 -28 40 -36 40
-7 0 -23 12 -34 26 -29 36 -15 69 29 69 19 0 35 6 38 14 3 10 -6 12 -47 6 -45
-6 -51 -5 -51 12 1 30 22 48 77 66 62 20 73 21 73 4 0 -8 -19 -17 -47 -23 -58
-11 -63 -28 -9 -31 49 -3 61 -14 47 -41 -6 -11 -11 -30 -11 -41 0 -24 -28 -29
-48 -9 -9 9 -12 9 -12 -3 0 -21 52 -49 57 -31 3 6 9 9 14 6 6 -3 19 2 30 12
22 20 28 17 31 -18 2 -19 7 -24 20 -20 22 5 24 40 3 56 -12 10 -12 14 0 30 11
15 15 16 19 5 2 -8 8 -23 12 -34 7 -19 8 -18 12 5 2 14 8 29 13 35 5 5 9 19 9
31 0 26 -26 90 -40 99 -6 4 -8 10 -5 15 3 4 -4 6 -14 3 -16 -4 -22 4 -35 48
-18 58 -21 109 -7 109 10 0 21 -34 21 -66 0 -11 6 -28 13 -38 11 -15 18 -16
34 -8 24 13 40 44 18 36 -18 -7 -30 49 -15 75 12 24 30 27 48 9 9 -9 12 -7 12
13 0 31 -10 46 -35 50 -14 3 -21 13 -23 35 -2 25 -11 35 -42 50 -47 22 -49 30
-15 38 18 5 42 -2 76 -19 44 -22 50 -23 47 -8 -2 10 -33 40 -70 68 -37 27 -71
54 -75 59 -9 10 42 3 71 -9 15 -6 17 -5 11 5 -5 8 -2 18 9 26 12 8 15 17 10
26 -5 7 -9 22 -9 32 0 11 -8 20 -18 22 -28 4 -56 34 -50 51 3 8 0 19 -7 23 -9
6 0 12 28 21 36 10 42 16 42 39 0 25 -51 90 -71 90 -15 0 -10 37 6 50 17 14
20 50 4 50 -7 0 -9 10 -7 25 3 16 -1 30 -13 41 -11 10 -19 28 -19 41 0 12 -4
23 -10 23 -15 0 -61 52 -75 86 -8 17 -21 36 -29 44 -23 18 -20 30 9 30 14 0
25 4 25 9 0 13 -47 20 -58 9 -6 -6 -19 -5 -33 3 -13 7 -30 15 -38 19 -8 3 -17
12 -19 20 -4 10 2 11 19 6 25 -8 150 -8 158 0 2 2 -4 13 -15 25 -10 11 -19 28
-19 37 0 8 -6 17 -12 19 -8 3 -13 -4 -13 -16 0 -12 -6 -21 -15 -21 -10 0 -15
10 -15 30 0 25 -6 32 -35 44 -41 17 -47 31 -10 22 39 -10 48 2 25 31 -16 20
-18 28 -8 34 20 13 1 22 -41 21 -44 -2 -115 24 -106 38 3 6 14 10 23 10 15 1
15 2 -1 14 -10 8 -45 14 -83 15 -73 1 -114 9 -114 22 0 5 10 9 23 9 22 1 22 1
2 16 -11 8 -31 17 -45 20 -14 3 -35 10 -46 16 -15 7 -28 7 -42 -1 -32 -17 -62
-14 -62 7 0 9 -9 23 -20 29 -14 9 -18 21 -15 44 2 17 6 33 9 36 9 10 26 -8 26
-28 0 -16 6 -19 35 -17 31 2 33 4 21 17 -13 13 -13 16 0 25 30 22 6 44 -56 51
-38 4 -61 12 -64 22 -6 13 -9 13 -31 -1 -34 -22 -45 -20 -45 9 0 19 -5 25 -23
25 -12 0 -31 6 -42 14 -11 8 -56 17 -100 22 -70 7 -77 9 -52 18 52 19 18 46
-55 43 -34 -1 -54 4 -77 21 -20 15 -44 22 -73 22 -24 0 -49 4 -57 9 -19 12 -4
31 25 31 39 0 27 17 -21 29 -54 14 -58 28 -10 37 41 7 42 10 10 47 -27 30 -50
34 -79 12 -17 -13 -22 -13 -37 1 -20 18 -60 16 -67 -4 -2 -7 2 -10 12 -6 9 3
16 1 16 -6 0 -6 -5 -8 -10 -5 -6 3 -14 -5 -19 -18 -5 -13 -20 -27 -32 -30 -32
-9 -37 1 -11 19 12 8 22 22 22 30 0 18 -10 17 -34 -1 -14 -11 -23 -12 -33 -4
-10 9 -13 6 -13 -14 0 -14 -6 -28 -12 -31 -10 -5 -10 -7 0 -12 14 -7 16 -34 2
-34 -5 0 -10 5 -10 10 0 6 -9 10 -20 10 -11 0 -20 5 -20 11 0 6 -9 24 -21 41
-18 24 -26 28 -50 23 -18 -4 -29 -3 -29 4 0 7 -9 6 -24 -4 -21 -14 -25 -14
-36 0 -7 8 -20 15 -29 15 -15 0 -17 -9 -13 -61 l4 -60 -42 5 c-45 5 -64 16
-42 23 17 6 15 23 -3 23 -8 0 -29 16 -48 35 -32 33 -56 43 -70 29 -12 -12 -82
-10 -109 3 -24 12 -30 11 -54 -12 -30 -28 -40 -30 -51 -12 -11 17 -59 47 -75
47 -7 -1 -18 -7 -25 -15z m207 -78 c0 -31 -14 -57 -32 -57 -12 0 -9 48 4 70
18 29 28 25 28 -13z m414 2 c-3 -5 -10 -7 -15 -3 -5 3 -7 10 -3 15 3 5 10 7
15 3 5 -3 7 -10 3 -15z m228 -31 c-9 -9 -15 -9 -24 0 -9 9 -7 12 12 12 19 0
21 -3 12 -12z m-871 -8 c23 -13 24 -26 2 -34 -17 -7 -33 9 -33 32 0 15 6 15
31 2z m-181 -110 c0 -5 -7 -10 -15 -10 -8 0 -15 5 -15 10 0 6 7 10 15 10 8 0
15 -4 15 -10z m-330 -70 c0 -5 -4 -10 -10 -10 -5 0 -10 5 -10 10 0 6 5 10 10
10 6 0 10 -4 10 -10z m1997 -16 c5 -15 -20 -24 -37 -14 -7 4 -9 13 -5 19 8 14
37 11 42 -5z m-2129 -11 c-4 -22 -22 -20 -26 1 -2 10 3 16 13 16 10 0 15 -7
13 -17z m2292 -52 c7 -13 7 -22 0 -26 -5 -3 -10 -19 -10 -36 0 -24 -4 -29 -24
-29 -13 0 -30 7 -37 16 -11 14 -11 18 4 29 9 7 17 21 17 32 0 37 32 46 50 14z
m-140 -56 c-14 -16 -40 -20 -40 -6 0 10 17 19 39 20 11 1 11 -2 1 -14z m500
-215 c0 -13 -49 -32 -67 -26 -24 10 -14 29 11 22 14 -3 28 -2 31 4 8 13 25 13
25 0z m-26 -111 c-7 -11 -44 -12 -44 -1 0 4 5 13 12 20 13 13 42 -4 32 -19z
m286 -319 c0 -5 -7 -10 -15 -10 -8 0 -15 5 -15 10 0 6 7 10 15 10 8 0 15 -4
15 -10z m-678 -342 c5 -14 -15 -38 -31 -38 -12 0 -15 33 -4 43 11 11 31 8 35
-5z m778 -350 c0 -16 -30 -7 -50 14 -23 25 -25 34 -7 41 11 5 57 -39 57 -55z
m-1297 -223 c1 -5 -6 -11 -15 -13 -11 -2 -18 3 -18 13 0 17 30 18 33 0z m1023
-31 c-4 -9 0 -24 8 -33 7 -9 16 -41 20 -71 5 -45 2 -59 -13 -77 -11 -13 -25
-23 -33 -23 -8 0 -19 -5 -25 -11 -12 -12 -54 28 -80 77 -16 32 -9 82 13 91 8
3 14 10 14 15 0 6 -7 5 -15 -2 -23 -19 -26 -8 -5 20 18 23 19 24 38 7 20 -19
47 -15 56 9 3 8 10 14 17 14 6 0 8 -7 5 -16z m104 -90 c0 -9 11 -14 30 -14 17
0 30 -2 30 -4 0 -2 3 -11 6 -20 8 -20 -33 -22 -58 -3 -19 15 -38 74 -19 63 6
-4 11 -14 11 -22z m172 -21 c6 -22 -1 -43 -13 -43 -5 0 -9 14 -9 30 0 33 15
41 22 13z m34 -54 c3 -6 1 -16 -5 -22 -9 -9 -14 -8 -21 3 -9 15 -4 30 10 30 5
0 12 -5 16 -11z m-2270 -256 c-10 -10 -19 5 -10 18 6 11 8 11 12 0 2 -7 1 -15
-2 -18z m78 -3 c-7 -7 -19 -7 -35 -1 -23 9 -22 10 11 10 23 1 31 -2 24 -9z
m-147 -95 c8 -22 -6 -33 -17 -15 -13 20 -12 30 0 30 6 0 13 -7 17 -15z m116
-229 c4 -6 5 -27 2 -46 -2 -19 -5 -44 -5 -56 0 -11 -9 -30 -20 -42 -11 -12
-20 -26 -20 -31 0 -6 -8 -15 -19 -20 -10 -6 -24 -32 -31 -58 -7 -26 -25 -65
-39 -85 -24 -34 -30 -37 -71 -35 -50 2 -136 -36 -144 -63 -2 -8 -4 3 -5 25 -1
36 5 47 59 105 33 36 60 70 60 77 0 19 33 83 42 83 4 0 8 4 8 9 0 24 59 101
93 122 20 13 37 27 37 32 0 11 43 -3 53 -17z m1871 -2 c17 -7 22 -39 7 -48
-25 -16 -55 26 -34 47 8 8 8 8 27 1z m-244 -184 c0 -5 -4 -10 -10 -10 -5 0
-10 5 -10 10 0 6 5 10 10 10 6 0 10 -4 10 -10z m530 -632 c0 -28 -16 -55 -26
-45 -4 4 -2 13 4 19 7 7 12 20 12 30 0 10 2 18 5 18 3 0 5 -10 5 -22z m-147
-71 c3 -39 5 -72 4 -74 -2 -1 -8 2 -15 6 -7 4 -14 38 -17 79 -4 57 -2 70 9 66
8 -3 15 -30 19 -77z m-2227 -16 c-10 -16 -45 -19 -50 -5 -4 10 3 14 25 14 17
0 28 -4 25 -9z m-119 -29 c9 -6 6 -16 -12 -37 -19 -24 -26 -27 -36 -18 -9 9
-16 10 -26 2 -10 -9 -13 -6 -13 13 0 32 58 58 87 40z m-315 -90 c-4 -11 -6
-11 -13 0 -5 7 -9 22 -9 32 0 19 0 19 14 1 8 -11 11 -25 8 -33z m-302 -153 c0
-11 -4 -18 -10 -14 -5 3 -7 12 -3 20 7 21 13 19 13 -6z m580 -103 c0 -7 3 -27
6 -44 5 -23 1 -34 -15 -48 -12 -10 -21 -25 -21 -34 -1 -23 -23 -48 -45 -50
-39 -4 -50 0 -62 25 -13 29 2 83 27 99 8 5 24 19 37 32 34 34 73 45 73 20z
m-41 -552 c-17 -32 -70 -35 -62 -4 8 30 22 35 38 14 13 -18 14 -16 15 16 1 30
2 32 11 16 8 -13 8 -25 -2 -42z m-122 -430 c-3 -3 -12 -4 -19 -1 -8 3 -5 6 6
6 11 1 17 -2 13 -5z"/>
<path d="M4911 5031 c-10 -6 -10 -10 -1 -16 6 -4 8 -14 5 -24 -4 -9 -8 -44
-10 -79 -3 -43 -11 -71 -24 -88 -29 -37 -22 -124 11 -141 29 -16 87 -27 95
-19 4 3 10 32 14 63 6 43 4 63 -8 87 -18 35 -13 119 11 167 15 29 15 33 -2 45
-19 15 -70 18 -91 5z"/>
<path d="M1775 4921 c-6 -11 9 -23 19 -14 9 9 7 23 -3 23 -6 0 -12 -4 -16 -9z"/>
<path d="M1800 4890 c0 -5 5 -10 11 -10 5 0 7 5 4 10 -3 6 -8 10 -11 10 -2 0
-4 -4 -4 -10z"/>
<path d="M970 4670 c-12 -7 -12 -12 -3 -21 15 -15 26 -7 21 15 -2 11 -7 13
-18 6z"/>
<path d="M1166 4614 c-4 -9 -4 -19 -2 -22 10 -9 36 8 36 23 0 20 -26 19 -34
-1z"/>
<path d="M856 4538 c-22 -31 -20 -61 4 -76 19 -12 20 -10 20 43 0 30 -2 55 -4
55 -3 0 -12 -10 -20 -22z"/>
<path d="M1010 4525 c0 -16 -3 -41 -7 -55 -6 -22 -5 -24 10 -11 19 15 22 57 7
81 -7 12 -10 8 -10 -15z"/>
<path d="M4342 4400 c0 -14 2 -19 5 -12 2 6 2 18 0 25 -3 6 -5 1 -5 -13z"/>
<path d="M896 4372 c-3 -6 -1 -14 5 -17 15 -10 25 3 12 16 -7 7 -13 7 -17 1z"/>
<path d="M902 4273 c-6 -11 -7 -25 -2 -33 6 -10 10 -7 16 13 8 34 -1 46 -14
20z"/>
<path d="M4420 4217 c0 -31 29 -77 50 -77 24 0 25 8 5 29 -8 9 -24 27 -35 41
-16 21 -19 22 -20 7z"/>
<path d="M2378 3990 c-116 -5 -150 -11 -136 -26 3 -3 106 -12 229 -20 238 -15
345 -27 394 -45 27 -9 157 -28 320 -45 45 -5 57 -4 49 5 -6 6 -28 14 -50 17
-69 9 -84 14 -84 27 0 8 -23 12 -77 13 -52 1 -100 9 -142 23 -36 13 -97 25
-135 28 -39 2 -78 7 -86 10 -8 4 -23 5 -34 4 -10 -2 -15 2 -12 7 6 11 -24 11
-236 2z"/>
<path d="M2173 3963 c9 -2 23 -2 30 0 6 3 -1 5 -18 5 -16 0 -22 -2 -12 -5z"/>
<path d="M2072 3951 c-11 -7 -11 -9 2 -14 16 -6 66 7 66 18 0 8 -54 5 -68 -4z"/>
<path d="M2365 3883 c-22 -2 -56 -7 -75 -13 -19 -5 -77 -11 -128 -14 -51 -2
-99 -9 -106 -15 -7 -6 -34 -14 -59 -17 -26 -4 -52 -14 -59 -22 -12 -13 -5 -14
57 -8 235 22 640 35 763 23 65 -5 83 -4 80 5 -3 7 -24 13 -49 14 -24 1 -66 7
-94 12 -27 6 -87 11 -132 11 -46 1 -83 5 -83 11 0 5 37 11 83 13 57 2 46 3
-38 3 -66 0 -138 -1 -160 -3z m98 -20 c-7 -2 -19 -2 -25 0 -7 3 -2 5 12 5 14
0 19 -2 13 -5z"/>
<path d="M1795 3780 c-4 -6 10 -10 34 -10 22 0 43 5 46 10 4 6 -10 10 -34 10
-22 0 -43 -4 -46 -10z"/>
<path d="M2444 3768 c-54 -8 -61 -12 -57 -29 6 -22 -2 -21 193 -19 94 1 200
-6 300 -19 85 -11 202 -23 260 -27 60 -4 129 -15 160 -26 87 -30 90 -31 90
-20 0 37 -187 83 -420 103 -63 5 -133 15 -155 22 -22 6 -67 13 -100 14 -33 1
-94 4 -135 7 -41 2 -103 0 -136 -6z"/>
<path d="M3195 3770 c3 -5 15 -10 26 -10 10 0 19 5 19 10 0 6 -12 10 -26 10
-14 0 -23 -4 -19 -10z"/>
<path d="M1973 3723 c4 -6 32 -13 64 -17 31 -4 63 -12 70 -18 20 -16 29 0 11
18 -18 18 -155 34 -145 17z"/>
<path d="M2244 3709 c-3 -6 -1 -16 5 -22 6 -6 11 -14 11 -18 0 -10 -94 2 -98
12 -2 5 -8 9 -13 9 -6 0 -7 -4 -4 -10 3 -5 2 -10 -3 -10 -5 0 -7 -11 -5 -24 6
-29 -22 -41 -73 -31 -19 3 -50 3 -71 -1 -32 -6 -34 -8 -19 -20 17 -12 17 -13
-1 -22 -19 -10 -104 -21 -238 -31 -68 -5 -80 -9 -79 -23 2 -26 -13 -22 -28 7
-8 14 -31 34 -53 45 -79 40 -74 25 28 -81 81 -85 174 -207 216 -282 27 -48 54
-90 62 -97 6 -5 60 -103 108 -194 32 -63 76 -107 135 -135 43 -21 57 -23 199
-19 214 5 216 6 358 218 46 69 89 131 97 139 8 8 24 30 37 50 33 53 178 206
257 272 72 60 82 76 45 71 -52 -6 -73 -2 -110 22 -24 16 -39 18 -118 11 l-91
-7 4 24 3 23 213 -3 c138 -2 212 0 212 7 0 18 -82 35 -250 53 -140 15 -210 14
-220 -2 -10 -16 -100 -21 -170 -8 -109 20 -130 19 -141 -9 -9 -24 -29 -23 -29
2 0 14 -10 19 -68 30 -18 4 -30 11 -26 16 3 5 2 18 -1 29 -5 15 -15 20 -40 20
-19 0 -37 -5 -41 -11z m141 -99 c-28 -12 -65 -12 -65 0 0 6 19 10 43 9 32 0
37 -2 22 -9z"/>
<path d="M4498 3563 c7 -3 16 -2 19 1 4 3 -2 6 -13 5 -11 0 -14 -3 -6 -6z"/>
<path d="M1217 3535 c-28 -16 -80 -106 -105 -180 -61 -187 -58 -414 9 -560 15
-33 36 -80 47 -105 12 -25 34 -64 49 -86 34 -51 131 -154 144 -154 5 0 9 -4 9
-8 0 -5 35 -34 78 -64 168 -121 363 -183 454 -145 56 23 71 62 76 187 5 143
-23 264 -109 480 -91 226 -197 390 -338 523 -111 104 -244 151 -314 112z m82
-232 c-15 -18 -34 -1 -25 22 5 14 9 15 21 5 12 -10 13 -16 4 -27z m-139 -10
c-4 -16 -14 -41 -21 -58 -12 -29 -13 -29 -17 -6 -4 23 26 91 40 91 3 0 3 -12
-2 -27z m350 -119 c0 -17 -22 -14 -28 4 -2 7 3 12 12 12 9 0 16 -7 16 -16z
m162 -109 c0 -5 -5 -11 -11 -13 -6 -2 -11 4 -11 13 0 9 5 15 11 13 6 -2 11 -8
11 -13z m-38 -212 c-11 -2 -25 -16 -31 -31 l-11 -27 -1 26 c-1 32 6 39 38 38
21 -1 22 -3 5 -6z m81 -4 c10 -15 -1 -23 -20 -15 -9 3 -13 10 -10 16 8 13 22
13 30 -1z"/>
<path d="M896 2686 c-4 -20 -3 -42 1 -49 5 -7 10 3 14 28 4 22 4 44 -1 48 -4
5 -11 -8 -14 -27z"/>
<path d="M4397 2713 c-13 -13 -7 -21 13 -16 11 3 17 9 14 14 -6 11 -18 12 -27
2z"/>
<path d="M975 2600 c-3 -5 -2 -10 4 -10 5 0 13 5 16 10 3 6 2 10 -4 10 -5 0
-13 -4 -16 -10z"/>
<path d="M720 2461 c0 -5 -9 -12 -20 -16 -22 -7 -215 -17 -305 -15 -160 2
-237 1 -313 -5 l-82 -7 0 -48 c0 -46 1 -48 33 -52 17 -3 187 -3 377 -2 318 4
346 5 360 22 8 10 27 26 43 35 38 24 36 54 -4 55 -17 0 -41 10 -53 21 -24 23
-36 26 -36 12z"/>
<path d="M4337 2366 c-6 -15 1 -26 15 -26 11 0 10 27 -1 34 -5 3 -11 0 -14 -8z"/>
<path d="M867 2343 c-11 -10 -8 -51 3 -58 6 -4 10 8 10 29 0 37 -2 41 -13 29z"/>
<path d="M786 2273 c-16 -16 1 -152 25 -195 5 -10 9 -27 9 -37 0 -11 5 -23 10
-26 6 -3 10 -16 10 -29 0 -12 15 -54 34 -92 l35 -69 0 112 c1 110 -12 209 -30
228 -5 5 -9 20 -9 35 0 14 -4 30 -8 35 -12 16 -69 45 -76 38z"/>
<path d="M322 1983 c-203 -2 -322 -7 -322 -13 0 -6 145 -10 405 -10 263 0 405
3 405 10 0 6 -11 10 -24 10 -12 0 -50 1 -82 3 -32 2 -204 2 -382 0z"/>
<path d="M4704 1978 c-7 -12 9 -13 91 -8 l80 5 -83 5 c-46 3 -86 2 -88 -2z"/>
<path d="M4888 1973 c7 -3 16 -2 19 1 4 3 -2 6 -13 5 -11 0 -14 -3 -6 -6z"/>
<path d="M4938 1973 c7 -3 16 -2 19 1 4 3 -2 6 -13 5 -11 0 -14 -3 -6 -6z"/>
<path d="M4050 1894 c0 -8 5 -12 10 -9 6 3 10 10 10 16 0 5 -4 9 -10 9 -5 0
-10 -7 -10 -16z"/>
<path d="M3860 1710 c0 -11 7 -20 15 -20 8 0 15 9 15 20 0 11 -7 20 -15 20 -8
0 -15 -9 -15 -20z"/>
</g>
</svg>
